<svg width="86" height="31" viewBox="0 0 86 31" fill="none" xmlns="http://www.w3.org/2000/svg">
<rect x="0.333336" y="0.163528" width="85.3333" height="30" rx="5" fill="#C71610"/>
<path d="M49.875 20.2885H48V12.0854L42.375 15.601L36.75 12.0854V20.2885H34.875V9.03853H36L42.375 13.0229L48.75 9.03853H49.875M49.875 7.16353H34.875C33.8344 7.16353 33 7.9979 33 9.03853V20.2885C33 20.7858 33.1975 21.2627 33.5492 21.6144C33.9008 21.966 34.3777 22.1635 34.875 22.1635H49.875C50.3723 22.1635 50.8492 21.966 51.2008 21.6144C51.5525 21.2627 51.75 20.7858 51.75 20.2885V9.03853C51.75 8.54125 51.5525 8.06433 51.2008 7.7127C50.8492 7.36107 50.3723 7.16353 49.875 7.16353Z" fill="white"/>
</svg>
