<svg width="24" height="25" viewBox="0 0 24 25" fill="none" xmlns="http://www.w3.org/2000/svg">
<path d="M18.875 17.2885H17V9.0854L11.375 12.601L5.75 9.0854V17.2885H3.875V6.03853H5L11.375 10.0229L17.75 6.03853H18.875M18.875 4.16353H3.875C2.83437 4.16353 2 4.9979 2 6.03853V17.2885C2 17.7858 2.19754 18.2627 2.54917 18.6144C2.90081 18.966 3.37772 19.1635 3.875 19.1635H18.875C19.3723 19.1635 19.8492 18.966 20.2008 18.6144C20.5525 18.2627 20.75 17.7858 20.75 17.2885V6.03853C20.75 5.54125 20.5525 5.06433 20.2008 4.7127C19.8492 4.36107 19.3723 4.16353 18.875 4.16353Z" fill="white"/>
</svg>
