<svg width="25" height="25" viewBox="0 0 25 25" fill="none" xmlns="http://www.w3.org/2000/svg">
<path d="M10.8872 21.4045C7.45822 22.5615 4.60122 21.4045 2.88722 17.8365" stroke="white" stroke-width="1.5" stroke-linecap="round" stroke-linejoin="round"/>
<path d="M10.8872 22.8365V19.5945C10.8872 18.9965 11.0712 18.4765 11.3672 18.0065C11.5712 17.6845 11.4312 17.2265 11.0642 17.1265C8.02122 16.2885 5.88722 14.9435 5.88722 10.4815C5.88722 9.32147 6.26722 8.23147 6.93522 7.28147C7.10122 7.04547 7.18522 6.92747 7.20522 6.82147C7.22522 6.71347 7.19022 6.57447 7.12022 6.29447C6.83722 5.15847 6.85622 3.95147 7.28022 2.86447C7.28022 2.86447 8.15722 2.57747 10.1542 3.82447C10.6102 4.10947 10.8382 4.25247 11.0392 4.28447C11.2402 4.31647 11.5082 4.24947 12.0442 4.11547C12.8106 3.92547 13.5977 3.83174 14.3872 3.83647C15.1768 3.8331 15.9637 3.92714 16.7302 4.11647C17.2662 4.25047 17.5352 4.31647 17.7362 4.28547C17.9362 4.25347 18.1642 4.11047 18.6202 3.82547C20.6172 2.57847 21.4942 2.86547 21.4942 2.86547C21.9182 3.95247 21.9372 5.15947 21.6542 6.29547C21.5842 6.57547 21.5502 6.71547 21.5702 6.82147C21.5902 6.92747 21.6732 7.04647 21.8392 7.28247C22.5072 8.23247 22.8872 9.32247 22.8872 10.4825C22.8872 14.9445 20.7532 16.2895 17.7102 17.1255C17.3432 17.2265 17.2032 17.6845 17.4072 18.0055C17.7032 18.4755 17.8872 18.9955 17.8872 19.5945V22.8365" stroke="white" stroke-width="1.5" stroke-linecap="round" stroke-linejoin="round"/>
</svg>
