<svg width="86" height="31" viewBox="0 0 86 31" fill="none" xmlns="http://www.w3.org/2000/svg">
<rect x="0.666656" y="0.163528" width="85.3333" height="30" rx="5" fill="#4FCE5D"/>
<path d="M47.0833 10.3461C46.3956 9.65164 45.5765 9.10104 44.6739 8.72634C43.7713 8.35164 42.8031 8.16033 41.8258 8.16357C37.7308 8.16357 34.3933 11.5011 34.3933 15.596C34.3933 16.9085 34.7383 18.1835 35.3833 19.3085L34.3333 23.1635L38.2708 22.1285C39.3583 22.721 40.5808 23.036 41.8258 23.036C45.9208 23.036 49.2583 19.6985 49.2583 15.6035C49.2583 13.6161 48.4858 11.7486 47.0833 10.3461ZM41.8258 21.776C40.7158 21.776 39.6283 21.476 38.6758 20.9135L38.4508 20.7785L36.1108 21.3935L36.7333 19.1135L36.5833 18.881C35.9665 17.8963 35.639 16.758 35.6383 15.596C35.6383 12.1911 38.4133 9.41607 41.8183 9.41607C43.4683 9.41607 45.0208 10.0611 46.1833 11.2311C46.759 11.804 47.2152 12.4855 47.5255 13.2361C47.8358 13.9866 47.9939 14.7914 47.9908 15.6035C48.0058 19.0085 45.2308 21.776 41.8258 21.776ZM45.2158 17.156C45.0283 17.066 44.1133 16.616 43.9483 16.5485C43.7758 16.4885 43.6558 16.4585 43.5283 16.6385C43.4008 16.826 43.0483 17.246 42.9433 17.366C42.8383 17.4935 42.7258 17.5085 42.5383 17.411C42.3508 17.321 41.7508 17.1185 41.0458 16.4885C40.4908 15.9935 40.1233 15.386 40.0108 15.1986C39.9058 15.0111 39.9958 14.9136 40.0933 14.8161C40.1758 14.7336 40.2808 14.5986 40.3708 14.4936C40.4608 14.3886 40.4983 14.3061 40.5583 14.1861C40.6183 14.0586 40.5883 13.9536 40.5433 13.8636C40.4983 13.7736 40.1233 12.8586 39.9733 12.4836C39.8233 12.1236 39.6658 12.1686 39.5533 12.1611H39.1933C39.0658 12.1611 38.8708 12.2061 38.6983 12.3936C38.5333 12.5811 38.0533 13.0311 38.0533 13.9461C38.0533 14.8611 38.7208 15.746 38.8108 15.866C38.9008 15.9935 40.1233 17.8685 41.9833 18.671C42.4258 18.866 42.7708 18.9785 43.0408 19.061C43.4833 19.2035 43.8883 19.181 44.2108 19.136C44.5708 19.0835 45.3133 18.686 45.4633 18.251C45.6208 17.816 45.6208 17.4485 45.5683 17.366C45.5158 17.2835 45.4033 17.246 45.2158 17.156Z" fill="white"/>
</svg>
