<svg width="25" height="25" viewBox="0 0 25 25" fill="none" xmlns="http://www.w3.org/2000/svg">
<g id="ic:baseline-whatsapp">
<path id="Vector" d="M19.0833 7.34606C18.3956 6.65164 17.5765 6.10104 16.6739 5.72634C15.7713 5.35164 14.8031 5.16033 13.8258 5.16357C9.7308 5.16357 6.39331 8.50106 6.39331 12.596C6.39331 13.9085 6.73831 15.1835 7.38331 16.3085L6.33331 20.1635L10.2708 19.1285C11.3583 19.721 12.5808 20.036 13.8258 20.036C17.9208 20.036 21.2583 16.6985 21.2583 12.6035C21.2583 10.6161 20.4858 8.74856 19.0833 7.34606ZM13.8258 18.776C12.7158 18.776 11.6283 18.476 10.6758 17.9135L10.4508 17.7785L8.11081 18.3935L8.73331 16.1135L8.58331 15.881C7.96647 14.8963 7.639 13.758 7.63831 12.596C7.63831 9.19106 10.4133 6.41607 13.8183 6.41607C15.4683 6.41607 17.0208 7.06106 18.1833 8.23106C18.759 8.80396 19.2152 9.48546 19.5255 10.2361C19.8358 10.9866 19.9939 11.7914 19.9908 12.6035C20.0058 16.0085 17.2308 18.776 13.8258 18.776ZM17.2158 14.156C17.0283 14.066 16.1133 13.616 15.9483 13.5485C15.7758 13.4885 15.6558 13.4585 15.5283 13.6385C15.4008 13.826 15.0483 14.246 14.9433 14.366C14.8383 14.4935 14.7258 14.5085 14.5383 14.411C14.3508 14.321 13.7508 14.1185 13.0458 13.4885C12.4908 12.9935 12.1233 12.386 12.0108 12.1986C11.9058 12.0111 11.9958 11.9136 12.0933 11.8161C12.1758 11.7336 12.2808 11.5986 12.3708 11.4936C12.4608 11.3886 12.4983 11.3061 12.5583 11.1861C12.6183 11.0586 12.5883 10.9536 12.5433 10.8636C12.4983 10.7736 12.1233 9.85856 11.9733 9.48356C11.8233 9.12356 11.6658 9.16856 11.5533 9.16106H11.1933C11.0658 9.16106 10.8708 9.20606 10.6983 9.39356C10.5333 9.58106 10.0533 10.0311 10.0533 10.9461C10.0533 11.8611 10.7208 12.746 10.8108 12.866C10.9008 12.9935 12.1233 14.8685 13.9833 15.671C14.4258 15.866 14.7708 15.9785 15.0408 16.061C15.4833 16.2035 15.8883 16.181 16.2108 16.136C16.5708 16.0835 17.3133 15.686 17.4633 15.251C17.6208 14.816 17.6208 14.4485 17.5683 14.366C17.5158 14.2835 17.4033 14.246 17.2158 14.156Z" fill="white"/>
</g>
</svg>
